<mxfile host="65bd71144e">
    <diagram id="bZ5vdFED0HxuOj-mL_6w" name="Page-1">
        <mxGraphModel dx="1032" dy="678" grid="1" gridSize="10" guides="1" tooltips="1" connect="1" arrows="1" fold="1" page="1" pageScale="1" pageWidth="827" pageHeight="1169" math="0" shadow="0">
            <root>
                <mxCell id="0"/>
                <mxCell id="1" parent="0"/>
                <mxCell id="31" value="&lt;b&gt;Consolidation&lt;br&gt;&lt;/b&gt;" style="ellipse;whiteSpace=wrap;html=1;rounded=0;shadow=0;glass=0;comic=0;strokeColor=#000000;strokeWidth=2;fillColor=#67A9CF;gradientColor=none;fontSize=14;fontColor=#000000;align=center;" parent="1" vertex="1">
                    <mxGeometry x="120" y="260" width="120" height="120" as="geometry"/>
                </mxCell>
                <mxCell id="34" value="&lt;b&gt;Citation&lt;/b&gt;" style="ellipse;whiteSpace=wrap;html=1;rounded=0;shadow=0;glass=0;comic=0;strokeColor=#000000;strokeWidth=2;fillColor=#D1E5F0;gradientColor=none;fontSize=14;fontColor=#000000;align=center;" parent="1" vertex="1">
                    <mxGeometry x="360" y="600" width="120" height="120" as="geometry"/>
                </mxCell>
                <mxCell id="40" value="&lt;b&gt;Legal&lt;br&gt;Resource&lt;br&gt;Subdivision&lt;/b&gt;" style="ellipse;whiteSpace=wrap;html=1;rounded=0;shadow=0;glass=0;comic=0;strokeColor=#000000;strokeWidth=2;fillColor=#D1E5F0;gradientColor=none;fontSize=14;fontColor=#000000;align=center;" parent="1" vertex="1">
                    <mxGeometry x="120" y="440" width="120" height="120" as="geometry"/>
                </mxCell>
                <mxCell id="41" value="&lt;b&gt;Consolidation&lt;br&gt;Abstract&lt;br&gt;&lt;/b&gt;" style="ellipse;whiteSpace=wrap;html=1;rounded=0;shadow=0;glass=0;comic=0;strokeColor=#000000;strokeWidth=2;fillColor=#67A9CF;gradientColor=none;fontSize=14;fontColor=#000000;align=center;" parent="1" vertex="1">
                    <mxGeometry x="600" y="80" width="120" height="120" as="geometry"/>
                </mxCell>
                <mxCell id="42" value="&lt;b&gt;Legal&lt;br&gt;Resource&lt;br&gt;Subdivision&lt;/b&gt;" style="ellipse;whiteSpace=wrap;html=1;rounded=0;shadow=0;glass=0;comic=0;strokeColor=#000000;strokeWidth=2;fillColor=#D1E5F0;gradientColor=none;fontSize=14;fontColor=#000000;align=center;" parent="1" vertex="1">
                    <mxGeometry x="600" y="440" width="120" height="120" as="geometry"/>
                </mxCell>
                <mxCell id="43" value="&lt;span style=&quot;background-color: rgb(209, 229, 240);&quot;&gt;citationFromLegalResource&lt;/span&gt;" style="endArrow=block;html=1;strokeColor=#000000;fontSize=14;fontColor=#000000;endFill=1;entryX=1;entryY=1;entryDx=0;entryDy=0;exitX=0;exitY=0;exitDx=0;exitDy=0;" parent="1" source="34" target="40" edge="1">
                    <mxGeometry width="50" height="50" relative="1" as="geometry">
                        <mxPoint x="210" y="680" as="sourcePoint"/>
                        <mxPoint x="410" y="550" as="targetPoint"/>
                        <Array as="points"/>
                    </mxGeometry>
                </mxCell>
                <mxCell id="44" value="&lt;span style=&quot;background-color: rgb(209, 229, 240);&quot;&gt;citationToLegalResource&lt;/span&gt;" style="endArrow=block;html=1;strokeColor=#000000;fontSize=14;fontColor=#000000;endFill=1;entryX=0;entryY=1;entryDx=0;entryDy=0;exitX=1;exitY=0;exitDx=0;exitDy=0;" parent="1" source="34" target="42" edge="1">
                    <mxGeometry width="50" height="50" relative="1" as="geometry">
                        <mxPoint x="387.57359312880703" y="627.573593128807" as="sourcePoint"/>
                        <mxPoint x="232.42640687119297" y="562.426406871193" as="targetPoint"/>
                        <Array as="points"/>
                    </mxGeometry>
                </mxCell>
                <mxCell id="45" value="&lt;span style=&quot;background-color: rgb(209, 229, 240);&quot;&gt;legalResourceSubdivisionIsPartOf&lt;/span&gt;" style="endArrow=block;html=1;strokeColor=#000000;fontSize=14;fontColor=#000000;endFill=1;entryX=0.5;entryY=1;entryDx=0;entryDy=0;exitX=0.5;exitY=0;exitDx=0;exitDy=0;" parent="1" source="40" target="31" edge="1">
                    <mxGeometry width="50" height="50" relative="1" as="geometry">
                        <mxPoint x="397.57359312880703" y="637.573593128807" as="sourcePoint"/>
                        <mxPoint x="242.42640687119297" y="572.426406871193" as="targetPoint"/>
                        <Array as="points"/>
                    </mxGeometry>
                </mxCell>
                <mxCell id="46" value="&lt;span style=&quot;background-color: rgb(209, 229, 240);&quot;&gt;legalResourceSubdivisionIsPartOf&lt;/span&gt;" style="endArrow=block;html=1;strokeColor=#000000;fontSize=14;fontColor=#000000;endFill=1;entryX=0.5;entryY=1;entryDx=0;entryDy=0;exitX=0.5;exitY=0;exitDx=0;exitDy=0;" parent="1" source="42" target="41" edge="1">
                    <mxGeometry width="50" height="50" relative="1" as="geometry">
                        <mxPoint x="190" y="450" as="sourcePoint"/>
                        <mxPoint x="190" y="370" as="targetPoint"/>
                        <Array as="points"/>
                    </mxGeometry>
                </mxCell>
                <mxCell id="47" value="&lt;b&gt;Consolidation&lt;br&gt;Abstract&lt;br&gt;&lt;/b&gt;" style="ellipse;whiteSpace=wrap;html=1;rounded=0;shadow=0;glass=0;comic=0;strokeColor=#000000;strokeWidth=2;fillColor=#67A9CF;gradientColor=none;fontSize=14;fontColor=#000000;align=center;" vertex="1" parent="1">
                    <mxGeometry x="120" y="80" width="120" height="120" as="geometry"/>
                </mxCell>
                <mxCell id="48" value="&lt;span style=&quot;background-color: rgb(209, 229, 240);&quot;&gt;isMemberOf&lt;/span&gt;" style="endArrow=block;html=1;strokeColor=#000000;fontSize=14;fontColor=#000000;endFill=1;entryX=0.5;entryY=1;entryDx=0;entryDy=0;exitX=0.5;exitY=0;exitDx=0;exitDy=0;" edge="1" parent="1" source="31" target="47">
                    <mxGeometry width="50" height="50" relative="1" as="geometry">
                        <mxPoint x="190" y="450" as="sourcePoint"/>
                        <mxPoint x="190" y="330" as="targetPoint"/>
                        <Array as="points"/>
                    </mxGeometry>
                </mxCell>
                <mxCell id="49" value="descriptionFrom" style="endArrow=block;html=1;strokeColor=#000000;fontSize=14;fontColor=#000000;endFill=1;exitX=1;exitY=0.5;exitDx=0;exitDy=0;entryX=0;entryY=0.5;entryDx=0;entryDy=0;" edge="1" parent="1" target="50" source="34">
                    <mxGeometry width="50" height="50" relative="1" as="geometry">
                        <mxPoint x="284" y="810" as="sourcePoint"/>
                        <mxPoint x="484" y="810" as="targetPoint"/>
                    </mxGeometry>
                </mxCell>
                <mxCell id="50" value="xsd:string" style="whiteSpace=wrap;html=1;rounded=0;shadow=0;glass=0;comic=0;strokeColor=#000000;strokeWidth=2;fillColor=#FFFFFF;gradientColor=none;fontSize=14;fontColor=#000000;align=center;" vertex="1" parent="1">
                    <mxGeometry x="640" y="650" width="120" height="20" as="geometry"/>
                </mxCell>
                <mxCell id="51" value="&lt;b&gt;eu:language&lt;/b&gt;" style="ellipse;whiteSpace=wrap;html=1;rounded=0;shadow=0;glass=0;comic=0;strokeColor=#000000;strokeWidth=2;fillColor=#D1E5F0;gradientColor=none;fontSize=14;fontColor=#000000;align=center;" vertex="1" parent="1">
                    <mxGeometry x="360" y="800" width="120" height="120" as="geometry"/>
                </mxCell>
                <mxCell id="52" value="&lt;span style=&quot;background-color: rgb(209, 229, 240);&quot;&gt;language&lt;/span&gt;" style="endArrow=block;html=1;strokeColor=#000000;fontSize=14;fontColor=#000000;endFill=1;entryX=0.5;entryY=0;entryDx=0;entryDy=0;exitX=0.5;exitY=1;exitDx=0;exitDy=0;" edge="1" parent="1" source="34" target="51">
                    <mxGeometry width="50" height="50" relative="1" as="geometry">
                        <mxPoint x="387.57359312880703" y="627.573593128807" as="sourcePoint"/>
                        <mxPoint x="232.42640687119297" y="552.426406871193" as="targetPoint"/>
                        <Array as="points"/>
                    </mxGeometry>
                </mxCell>
            </root>
        </mxGraphModel>
    </diagram>
</mxfile>